<?xml version="1.0" encoding="UTF-8"?>
<svg width="176px" height="176px" viewBox="0 0 176 176" version="1.1" xmlns="http://www.w3.org/2000/svg" xmlns:xlink="http://www.w3.org/1999/xlink">
    <title>Combined Shape</title>
    <g id="Web-English-home" stroke="none" stroke-width="1" fill="none" fill-rule="evenodd" opacity="0.1">
        <g id="未苒网络科技-联系" transform="translate(-446.000000, -1241.000000)" fill="#03101F" fill-rule="nonzero">
            <g id="咨询" transform="translate(0.000000, 1069.000000)">
                <path d="M450,340 C452.209139,340 454,341.790861 454,344 C454,346.209139 452.209139,348 450,348 C447.790861,348 446,346.209139 446,344 C446,341.790861 447.790861,340 450,340 Z M474,340 C476.209139,340 478,341.790861 478,344 C478,346.209139 476.209139,348 474,348 C471.790861,348 470,346.209139 470,344 C470,341.790861 471.790861,340 474,340 Z M498,340 C500.209139,340 502,341.790861 502,344 C502,346.209139 500.209139,348 498,348 C495.790861,348 494,346.209139 494,344 C494,341.790861 495.790861,340 498,340 Z M522,340 C524.209139,340 526,341.790861 526,344 C526,346.209139 524.209139,348 522,348 C519.790861,348 518,346.209139 518,344 C518,341.790861 519.790861,340 522,340 Z M546,340 C548.209139,340 550,341.790861 550,344 C550,346.209139 548.209139,348 546,348 C543.790861,348 542,346.209139 542,344 C542,341.790861 543.790861,340 546,340 Z M570,340 C572.209139,340 574,341.790861 574,344 C574,346.209139 572.209139,348 570,348 C567.790861,348 566,346.209139 566,344 C566,341.790861 567.790861,340 570,340 Z M594,340 C596.209139,340 598,341.790861 598,344 C598,346.209139 596.209139,348 594,348 C591.790861,348 590,346.209139 590,344 C590,341.790861 591.790861,340 594,340 Z M618,340 C620.209139,340 622,341.790861 622,344 C622,346.209139 620.209139,348 618,348 C615.790861,348 614,346.209139 614,344 C614,341.790861 615.790861,340 618,340 Z M450,316 C452.209139,316 454,317.790861 454,320 C454,322.209139 452.209139,324 450,324 C447.790861,324 446,322.209139 446,320 C446,317.790861 447.790861,316 450,316 Z M474,316 C476.209139,316 478,317.790861 478,320 C478,322.209139 476.209139,324 474,324 C471.790861,324 470,322.209139 470,320 C470,317.790861 471.790861,316 474,316 Z M498,316 C500.209139,316 502,317.790861 502,320 C502,322.209139 500.209139,324 498,324 C495.790861,324 494,322.209139 494,320 C494,317.790861 495.790861,316 498,316 Z M522,316 C524.209139,316 526,317.790861 526,320 C526,322.209139 524.209139,324 522,324 C519.790861,324 518,322.209139 518,320 C518,317.790861 519.790861,316 522,316 Z M546,316 C548.209139,316 550,317.790861 550,320 C550,322.209139 548.209139,324 546,324 C543.790861,324 542,322.209139 542,320 C542,317.790861 543.790861,316 546,316 Z M570,316 C572.209139,316 574,317.790861 574,320 C574,322.209139 572.209139,324 570,324 C567.790861,324 566,322.209139 566,320 C566,317.790861 567.790861,316 570,316 Z M594,316 C596.209139,316 598,317.790861 598,320 C598,322.209139 596.209139,324 594,324 C591.790861,324 590,322.209139 590,320 C590,317.790861 591.790861,316 594,316 Z M618,316 C620.209139,316 622,317.790861 622,320 C622,322.209139 620.209139,324 618,324 C615.790861,324 614,322.209139 614,320 C614,317.790861 615.790861,316 618,316 Z M450,292 C452.209139,292 454,293.790861 454,296 C454,298.209139 452.209139,300 450,300 C447.790861,300 446,298.209139 446,296 C446,293.790861 447.790861,292 450,292 Z M474,292 C476.209139,292 478,293.790861 478,296 C478,298.209139 476.209139,300 474,300 C471.790861,300 470,298.209139 470,296 C470,293.790861 471.790861,292 474,292 Z M498,292 C500.209139,292 502,293.790861 502,296 C502,298.209139 500.209139,300 498,300 C495.790861,300 494,298.209139 494,296 C494,293.790861 495.790861,292 498,292 Z M522,292 C524.209139,292 526,293.790861 526,296 C526,298.209139 524.209139,300 522,300 C519.790861,300 518,298.209139 518,296 C518,293.790861 519.790861,292 522,292 Z M546,292 C548.209139,292 550,293.790861 550,296 C550,298.209139 548.209139,300 546,300 C543.790861,300 542,298.209139 542,296 C542,293.790861 543.790861,292 546,292 Z M570,292 C572.209139,292 574,293.790861 574,296 C574,298.209139 572.209139,300 570,300 C567.790861,300 566,298.209139 566,296 C566,293.790861 567.790861,292 570,292 Z M594,292 C596.209139,292 598,293.790861 598,296 C598,298.209139 596.209139,300 594,300 C591.790861,300 590,298.209139 590,296 C590,293.790861 591.790861,292 594,292 Z M618,292 C620.209139,292 622,293.790861 622,296 C622,298.209139 620.209139,300 618,300 C615.790861,300 614,298.209139 614,296 C614,293.790861 615.790861,292 618,292 Z M450,268 C452.209139,268 454,269.790861 454,272 C454,274.209139 452.209139,276 450,276 C447.790861,276 446,274.209139 446,272 C446,269.790861 447.790861,268 450,268 Z M474,268 C476.209139,268 478,269.790861 478,272 C478,274.209139 476.209139,276 474,276 C471.790861,276 470,274.209139 470,272 C470,269.790861 471.790861,268 474,268 Z M498,268 C500.209139,268 502,269.790861 502,272 C502,274.209139 500.209139,276 498,276 C495.790861,276 494,274.209139 494,272 C494,269.790861 495.790861,268 498,268 Z M522,268 C524.209139,268 526,269.790861 526,272 C526,274.209139 524.209139,276 522,276 C519.790861,276 518,274.209139 518,272 C518,269.790861 519.790861,268 522,268 Z M546,268 C548.209139,268 550,269.790861 550,272 C550,274.209139 548.209139,276 546,276 C543.790861,276 542,274.209139 542,272 C542,269.790861 543.790861,268 546,268 Z M570,268 C572.209139,268 574,269.790861 574,272 C574,274.209139 572.209139,276 570,276 C567.790861,276 566,274.209139 566,272 C566,269.790861 567.790861,268 570,268 Z M594,268 C596.209139,268 598,269.790861 598,272 C598,274.209139 596.209139,276 594,276 C591.790861,276 590,274.209139 590,272 C590,269.790861 591.790861,268 594,268 Z M618,268 C620.209139,268 622,269.790861 622,272 C622,274.209139 620.209139,276 618,276 C615.790861,276 614,274.209139 614,272 C614,269.790861 615.790861,268 618,268 Z M594,244 C596.209139,244 598,245.790861 598,248 C598,250.209139 596.209139,252 594,252 C591.790861,252 590,250.209139 590,248 C590,245.790861 591.790861,244 594,244 Z M618,244 C620.209139,244 622,245.790861 622,248 C622,250.209139 620.209139,252 618,252 C615.790861,252 614,250.209139 614,248 C614,245.790861 615.790861,244 618,244 Z M450,244 C452.209139,244 454,245.790861 454,248 C454,250.209139 452.209139,252 450,252 C447.790861,252 446,250.209139 446,248 C446,245.790861 447.790861,244 450,244 Z M522,244 C524.209139,244 526,245.790861 526,248 C526,250.209139 524.209139,252 522,252 C519.790861,252 518,250.209139 518,248 C518,245.790861 519.790861,244 522,244 Z M546,244 C548.209139,244 550,245.790861 550,248 C550,250.209139 548.209139,252 546,252 C543.790861,252 542,250.209139 542,248 C542,245.790861 543.790861,244 546,244 Z M474,244 C476.209139,244 478,245.790861 478,248 C478,250.209139 476.209139,252 474,252 C471.790861,252 470,250.209139 470,248 C470,245.790861 471.790861,244 474,244 Z M498,244 C500.209139,244 502,245.790861 502,248 C502,250.209139 500.209139,252 498,252 C495.790861,252 494,250.209139 494,248 C494,245.790861 495.790861,244 498,244 Z M570,244 C572.209139,244 574,245.790861 574,248 C574,250.209139 572.209139,252 570,252 C567.790861,252 566,250.209139 566,248 C566,245.790861 567.790861,244 570,244 Z M498,220 C500.209139,220 502,221.790861 502,224 C502,226.209139 500.209139,228 498,228 C495.790861,228 494,226.209139 494,224 C494,221.790861 495.790861,220 498,220 Z M474,220 C476.209139,220 478,221.790861 478,224 C478,226.209139 476.209139,228 474,228 C471.790861,228 470,226.209139 470,224 C470,221.790861 471.790861,220 474,220 Z M570,220 C572.209139,220 574,221.790861 574,224 C574,226.209139 572.209139,228 570,228 C567.790861,228 566,226.209139 566,224 C566,221.790861 567.790861,220 570,220 Z M594,220 C596.209139,220 598,221.790861 598,224 C598,226.209139 596.209139,228 594,228 C591.790861,228 590,226.209139 590,224 C590,221.790861 591.790861,220 594,220 Z M522,220 C524.209139,220 526,221.790861 526,224 C526,226.209139 524.209139,228 522,228 C519.790861,228 518,226.209139 518,224 C518,221.790861 519.790861,220 522,220 Z M546,220 C548.209139,220 550,221.790861 550,224 C550,226.209139 548.209139,228 546,228 C543.790861,228 542,226.209139 542,224 C542,221.790861 543.790861,220 546,220 Z M618,220 C620.209139,220 622,221.790861 622,224 C622,226.209139 620.209139,228 618,228 C615.790861,228 614,226.209139 614,224 C614,221.790861 615.790861,220 618,220 Z M450,220 C452.209139,220 454,221.790861 454,224 C454,226.209139 452.209139,228 450,228 C447.790861,228 446,226.209139 446,224 C446,221.790861 447.790861,220 450,220 Z M546,196 C548.209139,196 550,197.790861 550,200 C550,202.209139 548.209139,204 546,204 C543.790861,204 542,202.209139 542,200 C542,197.790861 543.790861,196 546,196 Z M522,196 C524.209139,196 526,197.790861 526,200 C526,202.209139 524.209139,204 522,204 C519.790861,204 518,202.209139 518,200 C518,197.790861 519.790861,196 522,196 Z M570,196 C572.209139,196 574,197.790861 574,200 C574,202.209139 572.209139,204 570,204 C567.790861,204 566,202.209139 566,200 C566,197.790861 567.790861,196 570,196 Z M594,196 C596.209139,196 598,197.790861 598,200 C598,202.209139 596.209139,204 594,204 C591.790861,204 590,202.209139 590,200 C590,197.790861 591.790861,196 594,196 Z M618,196 C620.209139,196 622,197.790861 622,200 C622,202.209139 620.209139,204 618,204 C615.790861,204 614,202.209139 614,200 C614,197.790861 615.790861,196 618,196 Z M474,196 C476.209139,196 478,197.790861 478,200 C478,202.209139 476.209139,204 474,204 C471.790861,204 470,202.209139 470,200 C470,197.790861 471.790861,196 474,196 Z M498,196 C500.209139,196 502,197.790861 502,200 C502,202.209139 500.209139,204 498,204 C495.790861,204 494,202.209139 494,200 C494,197.790861 495.790861,196 498,196 Z M450,196 C452.209139,196 454,197.790861 454,200 C454,202.209139 452.209139,204 450,204 C447.790861,204 446,202.209139 446,200 C446,197.790861 447.790861,196 450,196 Z M450,172 C452.209139,172 454,173.790861 454,176 C454,178.209139 452.209139,180 450,180 C447.790861,180 446,178.209139 446,176 C446,173.790861 447.790861,172 450,172 Z M474,172 C476.209139,172 478,173.790861 478,176 C478,178.209139 476.209139,180 474,180 C471.790861,180 470,178.209139 470,176 C470,173.790861 471.790861,172 474,172 Z M498,172 C500.209139,172 502,173.790861 502,176 C502,178.209139 500.209139,180 498,180 C495.790861,180 494,178.209139 494,176 C494,173.790861 495.790861,172 498,172 Z M522,172 C524.209139,172 526,173.790861 526,176 C526,178.209139 524.209139,180 522,180 C519.790861,180 518,178.209139 518,176 C518,173.790861 519.790861,172 522,172 Z M546,172 C548.209139,172 550,173.790861 550,176 C550,178.209139 548.209139,180 546,180 C543.790861,180 542,178.209139 542,176 C542,173.790861 543.790861,172 546,172 Z M570,172 C572.209139,172 574,173.790861 574,176 C574,178.209139 572.209139,180 570,180 C567.790861,180 566,178.209139 566,176 C566,173.790861 567.790861,172 570,172 Z M594,172 C596.209139,172 598,173.790861 598,176 C598,178.209139 596.209139,180 594,180 C591.790861,180 590,178.209139 590,176 C590,173.790861 591.790861,172 594,172 Z M618,172 C620.209139,172 622,173.790861 622,176 C622,178.209139 620.209139,180 618,180 C615.790861,180 614,178.209139 614,176 C614,173.790861 615.790861,172 618,172 Z" id="Combined-Shape"></path>
            </g>
        </g>
    </g>
</svg>