<?xml version="1.0" encoding="UTF-8"?>
<svg width="30px" height="30px" viewBox="0 0 30 30" version="1.1" xmlns="http://www.w3.org/2000/svg" xmlns:xlink="http://www.w3.org/1999/xlink">
    <title>email</title>
    <g id="Web-English-home" stroke="none" stroke-width="1" fill="none" fill-rule="evenodd">
        <g id="未苒网络科技-联系" transform="translate(-135.000000, -2209.000000)" fill="#FFFFFF">
            <g id="联系方式" transform="translate(135.000000, 2068.000000)">
                <g id="1" transform="translate(0.000000, 103.000000)">
                    <path d="M15,38 C23.2842717,38 30,44.7157283 30,53 C30,61.2842717 23.2842717,68 15,68 C6.71572834,68 0,61.2842717 0,53 C0,44.7157283 6.71572834,38 15,38 Z M19,54 L15,57.3846661 L11,54 L6,59 L24,59 L19,54 Z M6,49 L6,58 L11,53.5429933 L6,49 Z M24,49 L19,53.5633805 L23.9999997,58 L24,49 Z M24,48 L6,48 L15.0428712,56 L24,48 Z" id="email"></path>
                </g>
            </g>
        </g>
    </g>
</svg>