<?xml version="1.0" encoding="UTF-8"?>
<svg width="64px" height="53px" viewBox="0 0 64 53" version="1.1" xmlns="http://www.w3.org/2000/svg" xmlns:xlink="http://www.w3.org/1999/xlink">
    <title>icon_WeChat</title>
    <g id="Web-English-home" stroke="none" stroke-width="1" fill="none" fill-rule="evenodd">
        <g id="未苒网络科技-联系" transform="translate(-1017.000000, -2130.000000)" fill="#0FC61B">
            <g id="联系方式" transform="translate(135.000000, 2068.000000)">
                <path d="M926.75817,78.9898867 C936.932462,78.9898867 946,86.3683642 946,95.4264421 C946,100.532776 942.6122,105.059636 938.063181,108.466763 L939.769063,114.130785 L933.557734,110.725836 C931.291939,111.294417 929.015251,111.862997 926.75817,111.862997 C915.980392,111.862997 907.494553,104.497591 907.494553,95.4264421 C907.494553,86.3683642 915.980392,78.9898867 926.75817,78.9898867 Z M904.651416,62 C915.786492,62 925.544662,68.7772198 927.505447,77.9050087 C926.786492,77.8244053 926.058824,77.772122 925.324619,77.772122 C914.56427,77.772122 906.067538,85.8019621 906.067538,95.6987508 C906.067538,97.3434956 906.324619,98.9294217 906.766885,100.443458 C906.065359,100.500098 905.361656,100.532776 904.651416,100.532776 C901.823529,100.532776 899.551198,99.9576595 896.716776,99.3977927 L888.799564,103.369143 L891.063181,96.552711 C885.394336,92.5922527 882,87.4815624 882,81.2642093 C882,70.4851402 892.198257,62 904.651416,62 Z M920.512636,88.0605997 C919.384096,88.0605997 918.246841,89.1955825 918.246841,90.3240299 C918.246841,91.469905 919.384096,92.591817 920.512636,92.591817 C922.225054,92.591817 923.347059,91.469905 923.347059,90.3240299 C923.347059,89.1955825 922.225054,88.0605997 920.512636,88.0605997 Z M932.971895,88.0605997 C931.849891,88.0605997 930.721351,89.1955825 930.721351,90.3240299 C930.721351,91.469905 931.849891,92.591817 932.971895,92.591817 C934.669063,92.591817 935.806318,91.469905 935.806318,90.3240299 C935.806318,89.1955825 934.669063,88.0605997 932.971895,88.0605997 Z M897.292157,71.6327582 C895.597168,71.6327582 893.882571,72.7524917 893.882571,74.4582336 C893.882571,76.1552617 895.597168,77.292423 897.292157,77.292423 C898.989325,77.292423 900.117865,76.1552617 900.117865,74.4582336 C900.117865,72.7524917 898.989325,71.6327582 897.292157,71.6327582 Z M913.147059,71.6318868 C911.449891,71.6318868 909.744009,72.7516203 909.744009,74.4573622 C909.744009,76.1565688 911.449891,77.2915516 913.147059,77.2915516 C914.850763,77.2915516 915.981481,76.1565688 915.981481,74.4573622 C915.981481,72.7516203 914.850763,71.6318868 913.147059,71.6318868 Z" id="icon_WeChat"></path>
            </g>
        </g>
    </g>
</svg>