<?xml version="1.0" encoding="UTF-8"?>
<svg width="30px" height="30px" viewBox="0 0 30 30" version="1.1" xmlns="http://www.w3.org/2000/svg" xmlns:xlink="http://www.w3.org/1999/xlink">
    <title>phone</title>
    <g id="Web-English-home" stroke="none" stroke-width="1" fill="none" fill-rule="evenodd">
        <g id="未苒网络科技-联系" transform="translate(-135.000000, -2171.000000)" fill="#FFFFFF">
            <g id="联系方式" transform="translate(135.000000, 2068.000000)">
                <g id="1" transform="translate(0.000000, 103.000000)">
                    <path d="M15,0 C23.2842717,0 30,6.71572834 30,15 C30,23.2842717 23.2842717,30 15,30 C6.71572834,30 0,23.2842717 0,15 C0,6.71572834 6.71572834,0 15,0 Z M11.6610961,8.45569644 C10.8089632,7.21171772 7.12652995,8.45569645 8.19169648,12.915815 C8.5945999,14.6028728 9.50032946,16.405023 12.6349626,19.1357076 C15.7695958,21.8663921 18.7216283,22.230484 20.5476279,21.8967332 C22.3736276,21.5629824 23.7126939,18.7412766 22.5866608,18.1041161 C21.4606277,17.4669556 20.1519959,16.8546938 19.3302955,16.5995174 C18.5085951,16.3443409 17.4434284,18.3771843 17.4434284,18.3771843 C17.4434284,18.3771843 16.4470257,18.6199124 14.255826,16.8601377 C12.0646263,15.1003629 11.8436961,13.5226337 11.8436961,13.5226337 C11.8436961,13.5226337 12.9697291,12.5213825 12.9697291,11.8235408 C12.9697292,11.1256992 12.5132291,9.69967508 11.6610961,8.45569644 Z" id="phone"></path>
                </g>
            </g>
        </g>
    </g>
</svg>