<?xml version="1.0" encoding="UTF-8"?>
<svg width="176px" height="176px" viewBox="0 0 176 176" version="1.1" xmlns="http://www.w3.org/2000/svg" xmlns:xlink="http://www.w3.org/1999/xlink">
    <title>Combined Shape</title>
    <g id="Web-English-home" stroke="none" stroke-width="1" fill="none" fill-rule="evenodd">
        <g id="未苒网络科技-简单-案例展示" transform="translate(-1174.000000, -2055.000000)" fill="currentColor" fill-rule="nonzero">
            <g id="项目介绍" transform="translate(0.000000, 796.000000)">
                <path d="M1178,1427 C1180.20914,1427 1182,1428.79086 1182,1431 C1182,1433.20914 1180.20914,1435 1178,1435 C1175.79086,1435 1174,1433.20914 1174,1431 C1174,1428.79086 1175.79086,1427 1178,1427 Z M1202,1427 C1204.20914,1427 1206,1428.79086 1206,1431 C1206,1433.20914 1204.20914,1435 1202,1435 C1199.79086,1435 1198,1433.20914 1198,1431 C1198,1428.79086 1199.79086,1427 1202,1427 Z M1226,1427 C1228.20914,1427 1230,1428.79086 1230,1431 C1230,1433.20914 1228.20914,1435 1226,1435 C1223.79086,1435 1222,1433.20914 1222,1431 C1222,1428.79086 1223.79086,1427 1226,1427 Z M1250,1427 C1252.20914,1427 1254,1428.79086 1254,1431 C1254,1433.20914 1252.20914,1435 1250,1435 C1247.79086,1435 1246,1433.20914 1246,1431 C1246,1428.79086 1247.79086,1427 1250,1427 Z M1274,1427 C1276.20914,1427 1278,1428.79086 1278,1431 C1278,1433.20914 1276.20914,1435 1274,1435 C1271.79086,1435 1270,1433.20914 1270,1431 C1270,1428.79086 1271.79086,1427 1274,1427 Z M1298,1427 C1300.20914,1427 1302,1428.79086 1302,1431 C1302,1433.20914 1300.20914,1435 1298,1435 C1295.79086,1435 1294,1433.20914 1294,1431 C1294,1428.79086 1295.79086,1427 1298,1427 Z M1322,1427 C1324.20914,1427 1326,1428.79086 1326,1431 C1326,1433.20914 1324.20914,1435 1322,1435 C1319.79086,1435 1318,1433.20914 1318,1431 C1318,1428.79086 1319.79086,1427 1322,1427 Z M1346,1427 C1348.20914,1427 1350,1428.79086 1350,1431 C1350,1433.20914 1348.20914,1435 1346,1435 C1343.79086,1435 1342,1433.20914 1342,1431 C1342,1428.79086 1343.79086,1427 1346,1427 Z M1178,1403 C1180.20914,1403 1182,1404.79086 1182,1407 C1182,1409.20914 1180.20914,1411 1178,1411 C1175.79086,1411 1174,1409.20914 1174,1407 C1174,1404.79086 1175.79086,1403 1178,1403 Z M1202,1403 C1204.20914,1403 1206,1404.79086 1206,1407 C1206,1409.20914 1204.20914,1411 1202,1411 C1199.79086,1411 1198,1409.20914 1198,1407 C1198,1404.79086 1199.79086,1403 1202,1403 Z M1226,1403 C1228.20914,1403 1230,1404.79086 1230,1407 C1230,1409.20914 1228.20914,1411 1226,1411 C1223.79086,1411 1222,1409.20914 1222,1407 C1222,1404.79086 1223.79086,1403 1226,1403 Z M1250,1403 C1252.20914,1403 1254,1404.79086 1254,1407 C1254,1409.20914 1252.20914,1411 1250,1411 C1247.79086,1411 1246,1409.20914 1246,1407 C1246,1404.79086 1247.79086,1403 1250,1403 Z M1274,1403 C1276.20914,1403 1278,1404.79086 1278,1407 C1278,1409.20914 1276.20914,1411 1274,1411 C1271.79086,1411 1270,1409.20914 1270,1407 C1270,1404.79086 1271.79086,1403 1274,1403 Z M1298,1403 C1300.20914,1403 1302,1404.79086 1302,1407 C1302,1409.20914 1300.20914,1411 1298,1411 C1295.79086,1411 1294,1409.20914 1294,1407 C1294,1404.79086 1295.79086,1403 1298,1403 Z M1322,1403 C1324.20914,1403 1326,1404.79086 1326,1407 C1326,1409.20914 1324.20914,1411 1322,1411 C1319.79086,1411 1318,1409.20914 1318,1407 C1318,1404.79086 1319.79086,1403 1322,1403 Z M1346,1403 C1348.20914,1403 1350,1404.79086 1350,1407 C1350,1409.20914 1348.20914,1411 1346,1411 C1343.79086,1411 1342,1409.20914 1342,1407 C1342,1404.79086 1343.79086,1403 1346,1403 Z M1178,1379 C1180.20914,1379 1182,1380.79086 1182,1383 C1182,1385.20914 1180.20914,1387 1178,1387 C1175.79086,1387 1174,1385.20914 1174,1383 C1174,1380.79086 1175.79086,1379 1178,1379 Z M1202,1379 C1204.20914,1379 1206,1380.79086 1206,1383 C1206,1385.20914 1204.20914,1387 1202,1387 C1199.79086,1387 1198,1385.20914 1198,1383 C1198,1380.79086 1199.79086,1379 1202,1379 Z M1226,1379 C1228.20914,1379 1230,1380.79086 1230,1383 C1230,1385.20914 1228.20914,1387 1226,1387 C1223.79086,1387 1222,1385.20914 1222,1383 C1222,1380.79086 1223.79086,1379 1226,1379 Z M1250,1379 C1252.20914,1379 1254,1380.79086 1254,1383 C1254,1385.20914 1252.20914,1387 1250,1387 C1247.79086,1387 1246,1385.20914 1246,1383 C1246,1380.79086 1247.79086,1379 1250,1379 Z M1274,1379 C1276.20914,1379 1278,1380.79086 1278,1383 C1278,1385.20914 1276.20914,1387 1274,1387 C1271.79086,1387 1270,1385.20914 1270,1383 C1270,1380.79086 1271.79086,1379 1274,1379 Z M1298,1379 C1300.20914,1379 1302,1380.79086 1302,1383 C1302,1385.20914 1300.20914,1387 1298,1387 C1295.79086,1387 1294,1385.20914 1294,1383 C1294,1380.79086 1295.79086,1379 1298,1379 Z M1322,1379 C1324.20914,1379 1326,1380.79086 1326,1383 C1326,1385.20914 1324.20914,1387 1322,1387 C1319.79086,1387 1318,1385.20914 1318,1383 C1318,1380.79086 1319.79086,1379 1322,1379 Z M1346,1379 C1348.20914,1379 1350,1380.79086 1350,1383 C1350,1385.20914 1348.20914,1387 1346,1387 C1343.79086,1387 1342,1385.20914 1342,1383 C1342,1380.79086 1343.79086,1379 1346,1379 Z M1178,1355 C1180.20914,1355 1182,1356.79086 1182,1359 C1182,1361.20914 1180.20914,1363 1178,1363 C1175.79086,1363 1174,1361.20914 1174,1359 C1174,1356.79086 1175.79086,1355 1178,1355 Z M1202,1355 C1204.20914,1355 1206,1356.79086 1206,1359 C1206,1361.20914 1204.20914,1363 1202,1363 C1199.79086,1363 1198,1361.20914 1198,1359 C1198,1356.79086 1199.79086,1355 1202,1355 Z M1226,1355 C1228.20914,1355 1230,1356.79086 1230,1359 C1230,1361.20914 1228.20914,1363 1226,1363 C1223.79086,1363 1222,1361.20914 1222,1359 C1222,1356.79086 1223.79086,1355 1226,1355 Z M1250,1355 C1252.20914,1355 1254,1356.79086 1254,1359 C1254,1361.20914 1252.20914,1363 1250,1363 C1247.79086,1363 1246,1361.20914 1246,1359 C1246,1356.79086 1247.79086,1355 1250,1355 Z M1274,1355 C1276.20914,1355 1278,1356.79086 1278,1359 C1278,1361.20914 1276.20914,1363 1274,1363 C1271.79086,1363 1270,1361.20914 1270,1359 C1270,1356.79086 1271.79086,1355 1274,1355 Z M1298,1355 C1300.20914,1355 1302,1356.79086 1302,1359 C1302,1361.20914 1300.20914,1363 1298,1363 C1295.79086,1363 1294,1361.20914 1294,1359 C1294,1356.79086 1295.79086,1355 1298,1355 Z M1322,1355 C1324.20914,1355 1326,1356.79086 1326,1359 C1326,1361.20914 1324.20914,1363 1322,1363 C1319.79086,1363 1318,1361.20914 1318,1359 C1318,1356.79086 1319.79086,1355 1322,1355 Z M1346,1355 C1348.20914,1355 1350,1356.79086 1350,1359 C1350,1361.20914 1348.20914,1363 1346,1363 C1343.79086,1363 1342,1361.20914 1342,1359 C1342,1356.79086 1343.79086,1355 1346,1355 Z M1322,1331 C1324.20914,1331 1326,1332.79086 1326,1335 C1326,1337.20914 1324.20914,1339 1322,1339 C1319.79086,1339 1318,1337.20914 1318,1335 C1318,1332.79086 1319.79086,1331 1322,1331 Z M1346,1331 C1348.20914,1331 1350,1332.79086 1350,1335 C1350,1337.20914 1348.20914,1339 1346,1339 C1343.79086,1339 1342,1337.20914 1342,1335 C1342,1332.79086 1343.79086,1331 1346,1331 Z M1178,1331 C1180.20914,1331 1182,1332.79086 1182,1335 C1182,1337.20914 1180.20914,1339 1178,1339 C1175.79086,1339 1174,1337.20914 1174,1335 C1174,1332.79086 1175.79086,1331 1178,1331 Z M1250,1331 C1252.20914,1331 1254,1332.79086 1254,1335 C1254,1337.20914 1252.20914,1339 1250,1339 C1247.79086,1339 1246,1337.20914 1246,1335 C1246,1332.79086 1247.79086,1331 1250,1331 Z M1274,1331 C1276.20914,1331 1278,1332.79086 1278,1335 C1278,1337.20914 1276.20914,1339 1274,1339 C1271.79086,1339 1270,1337.20914 1270,1335 C1270,1332.79086 1271.79086,1331 1274,1331 Z M1202,1331 C1204.20914,1331 1206,1332.79086 1206,1335 C1206,1337.20914 1204.20914,1339 1202,1339 C1199.79086,1339 1198,1337.20914 1198,1335 C1198,1332.79086 1199.79086,1331 1202,1331 Z M1226,1331 C1228.20914,1331 1230,1332.79086 1230,1335 C1230,1337.20914 1228.20914,1339 1226,1339 C1223.79086,1339 1222,1337.20914 1222,1335 C1222,1332.79086 1223.79086,1331 1226,1331 Z M1298,1331 C1300.20914,1331 1302,1332.79086 1302,1335 C1302,1337.20914 1300.20914,1339 1298,1339 C1295.79086,1339 1294,1337.20914 1294,1335 C1294,1332.79086 1295.79086,1331 1298,1331 Z M1226,1307 C1228.20914,1307 1230,1308.79086 1230,1311 C1230,1313.20914 1228.20914,1315 1226,1315 C1223.79086,1315 1222,1313.20914 1222,1311 C1222,1308.79086 1223.79086,1307 1226,1307 Z M1202,1307 C1204.20914,1307 1206,1308.79086 1206,1311 C1206,1313.20914 1204.20914,1315 1202,1315 C1199.79086,1315 1198,1313.20914 1198,1311 C1198,1308.79086 1199.79086,1307 1202,1307 Z M1298,1307 C1300.20914,1307 1302,1308.79086 1302,1311 C1302,1313.20914 1300.20914,1315 1298,1315 C1295.79086,1315 1294,1313.20914 1294,1311 C1294,1308.79086 1295.79086,1307 1298,1307 Z M1322,1307 C1324.20914,1307 1326,1308.79086 1326,1311 C1326,1313.20914 1324.20914,1315 1322,1315 C1319.79086,1315 1318,1313.20914 1318,1311 C1318,1308.79086 1319.79086,1307 1322,1307 Z M1250,1307 C1252.20914,1307 1254,1308.79086 1254,1311 C1254,1313.20914 1252.20914,1315 1250,1315 C1247.79086,1315 1246,1313.20914 1246,1311 C1246,1308.79086 1247.79086,1307 1250,1307 Z M1274,1307 C1276.20914,1307 1278,1308.79086 1278,1311 C1278,1313.20914 1276.20914,1315 1274,1315 C1271.79086,1315 1270,1313.20914 1270,1311 C1270,1308.79086 1271.79086,1307 1274,1307 Z M1346,1307 C1348.20914,1307 1350,1308.79086 1350,1311 C1350,1313.20914 1348.20914,1315 1346,1315 C1343.79086,1315 1342,1313.20914 1342,1311 C1342,1308.79086 1343.79086,1307 1346,1307 Z M1178,1307 C1180.20914,1307 1182,1308.79086 1182,1311 C1182,1313.20914 1180.20914,1315 1178,1315 C1175.79086,1315 1174,1313.20914 1174,1311 C1174,1308.79086 1175.79086,1307 1178,1307 Z M1274,1283 C1276.20914,1283 1278,1284.79086 1278,1287 C1278,1289.20914 1276.20914,1291 1274,1291 C1271.79086,1291 1270,1289.20914 1270,1287 C1270,1284.79086 1271.79086,1283 1274,1283 Z M1250,1283 C1252.20914,1283 1254,1284.79086 1254,1287 C1254,1289.20914 1252.20914,1291 1250,1291 C1247.79086,1291 1246,1289.20914 1246,1287 C1246,1284.79086 1247.79086,1283 1250,1283 Z M1298,1283 C1300.20914,1283 1302,1284.79086 1302,1287 C1302,1289.20914 1300.20914,1291 1298,1291 C1295.79086,1291 1294,1289.20914 1294,1287 C1294,1284.79086 1295.79086,1283 1298,1283 Z M1322,1283 C1324.20914,1283 1326,1284.79086 1326,1287 C1326,1289.20914 1324.20914,1291 1322,1291 C1319.79086,1291 1318,1289.20914 1318,1287 C1318,1284.79086 1319.79086,1283 1322,1283 Z M1346,1283 C1348.20914,1283 1350,1284.79086 1350,1287 C1350,1289.20914 1348.20914,1291 1346,1291 C1343.79086,1291 1342,1289.20914 1342,1287 C1342,1284.79086 1343.79086,1283 1346,1283 Z M1202,1283 C1204.20914,1283 1206,1284.79086 1206,1287 C1206,1289.20914 1204.20914,1291 1202,1291 C1199.79086,1291 1198,1289.20914 1198,1287 C1198,1284.79086 1199.79086,1283 1202,1283 Z M1226,1283 C1228.20914,1283 1230,1284.79086 1230,1287 C1230,1289.20914 1228.20914,1291 1226,1291 C1223.79086,1291 1222,1289.20914 1222,1287 C1222,1284.79086 1223.79086,1283 1226,1283 Z M1178,1283 C1180.20914,1283 1182,1284.79086 1182,1287 C1182,1289.20914 1180.20914,1291 1178,1291 C1175.79086,1291 1174,1289.20914 1174,1287 C1174,1284.79086 1175.79086,1283 1178,1283 Z M1178,1259 C1180.20914,1259 1182,1260.79086 1182,1263 C1182,1265.20914 1180.20914,1267 1178,1267 C1175.79086,1267 1174,1265.20914 1174,1263 C1174,1260.79086 1175.79086,1259 1178,1259 Z M1202,1259 C1204.20914,1259 1206,1260.79086 1206,1263 C1206,1265.20914 1204.20914,1267 1202,1267 C1199.79086,1267 1198,1265.20914 1198,1263 C1198,1260.79086 1199.79086,1259 1202,1259 Z M1226,1259 C1228.20914,1259 1230,1260.79086 1230,1263 C1230,1265.20914 1228.20914,1267 1226,1267 C1223.79086,1267 1222,1265.20914 1222,1263 C1222,1260.79086 1223.79086,1259 1226,1259 Z M1250,1259 C1252.20914,1259 1254,1260.79086 1254,1263 C1254,1265.20914 1252.20914,1267 1250,1267 C1247.79086,1267 1246,1265.20914 1246,1263 C1246,1260.79086 1247.79086,1259 1250,1259 Z M1274,1259 C1276.20914,1259 1278,1260.79086 1278,1263 C1278,1265.20914 1276.20914,1267 1274,1267 C1271.79086,1267 1270,1265.20914 1270,1263 C1270,1260.79086 1271.79086,1259 1274,1259 Z M1298,1259 C1300.20914,1259 1302,1260.79086 1302,1263 C1302,1265.20914 1300.20914,1267 1298,1267 C1295.79086,1267 1294,1265.20914 1294,1263 C1294,1260.79086 1295.79086,1259 1298,1259 Z M1322,1259 C1324.20914,1259 1326,1260.79086 1326,1263 C1326,1265.20914 1324.20914,1267 1322,1267 C1319.79086,1267 1318,1265.20914 1318,1263 C1318,1260.79086 1319.79086,1259 1322,1259 Z M1346,1259 C1348.20914,1259 1350,1260.79086 1350,1263 C1350,1265.20914 1348.20914,1267 1346,1267 C1343.79086,1267 1342,1265.20914 1342,1263 C1342,1260.79086 1343.79086,1259 1346,1259 Z" id="Combined-Shape"></path>
            </g>
        </g>
    </g>
</svg>
