<?xml version="1.0" encoding="UTF-8"?>
<svg width="30px" height="30px" viewBox="0 0 30 30" version="1.1" xmlns="http://www.w3.org/2000/svg" xmlns:xlink="http://www.w3.org/1999/xlink">
    <title>icon_wechat_while</title>
    <g id="Web-English-home" stroke="none" stroke-width="1" fill="none" fill-rule="evenodd">
        <g id="未苒网络科技-首页" transform="translate(-135.000000, -4676.000000)" fill="#FFFFFF">
            <g id="Footer" transform="translate(0.000000, 4177.000000)">
                <g id="Social" transform="translate(135.000000, 499.000000)">
                    <path d="M15,0 C23.2842717,0 30,6.71572834 30,15 C30,23.2842717 23.2842717,30 15,30 C6.71572834,30 0,23.2842717 0,15 C0,6.71572834 6.71572834,0 15,0 Z M12.3,7.2 C8.48923504,7.2 5.4,9.86962593 5.4,13.1627768 C5.4,15.1299967 6.50238562,16.8747134 8.20243573,17.9607616 C8.39290387,18.082439 7.57031488,19.7950412 7.77507728,19.8995697 C8.11876865,20.0750195 9.5021551,18.6262556 9.88076181,18.7487626 C10.6335829,18.9923554 11.4487915,19.1255535 12.3,19.1255535 C12.7265519,19.1255535 13.1440636,19.0921056 13.5492147,19.0280791 C14.3503464,20.8534681 16.443737,22.1557691 18.9,22.1557691 C19.571288,22.1557691 20.2154728,22.058499 20.8135886,21.8798562 C21.0099751,21.8212003 22.3390188,22.9883714 22.5248007,22.9127329 C22.8262273,22.7900113 21.9751886,21.411078 22.2440648,21.2475359 C23.6716361,20.3792253 24.6,18.9694316 24.6,17.3778846 C24.6,14.81501 22.1926791,12.7234361 19.1700426,12.6052674 C18.8452367,9.57376413 15.8934015,7.2 12.3,7.2 Z M12.3,8.4 C15.2396502,8.4 17.6595491,10.2668962 17.967024,12.6645405 C15.2619776,13.0377095 13.2,15.005952 13.2,17.3778846 C13.2,17.5542572 13.211401,17.7283977 13.2336188,17.8998166 C12.9305372,17.941962 12.6183157,17.963852 12.3,17.963852 C11.5042706,17.963852 10.7466246,17.8270603 10.0586509,17.5799781 C9.99002487,17.5553314 9.7453098,17.4814951 9.6129261,17.5799784 C9.3153334,17.8013644 8.91627875,18.2608956 8.91627875,18.2608956 C8.91627875,18.2608956 9.06237093,17.9262915 9.11133991,17.4376678 C9.13371491,17.2144049 8.79296818,17.057858 8.72496439,17.0118607 C7.42904222,16.1353072 6.6,14.6872012 6.6,13.181926 C6.6,10.5409411 9.15197677,8.4 12.3,8.4 Z M16.8,15 C17.1313709,15 17.4,15.2686291 17.4,15.6 C17.4,15.9313709 17.1313709,16.2 16.8,16.2 C16.4686291,16.2 16.2,15.9313709 16.2,15.6 C16.2,15.2686291 16.4686291,15 16.8,15 Z M20.4,15 C20.7313709,15 21,15.2686291 21,15.6 C21,15.9313709 20.7313709,16.2 20.4,16.2 C20.0686291,16.2 19.8,15.9313709 19.8,15.6 C19.8,15.2686291 20.0686291,15 20.4,15 Z M9.9,10.2 C9.4029437,10.2 9,10.6029437 9,11.1 C9,11.5970563 9.4029437,12 9.9,12 C10.3970563,12 10.8,11.5970563 10.8,11.1 C10.8,10.6029437 10.3970563,10.2 9.9,10.2 Z M14.7,10.2 C14.2029437,10.2 13.8,10.6029437 13.8,11.1 C13.8,11.5970563 14.2029437,12 14.7,12 C15.1970563,12 15.6,11.5970563 15.6,11.1 C15.6,10.6029437 15.1970563,10.2 14.7,10.2 Z" id="icon_wechat_while"></path>
                </g>
            </g>
        </g>
    </g>
</svg>