<?xml version="1.0" encoding="UTF-8"?>
<svg width="30px" height="30px" viewBox="0 0 30 30" version="1.1" xmlns="http://www.w3.org/2000/svg" xmlns:xlink="http://www.w3.org/1999/xlink">
    <title>icon_sina_weibo_while</title>
    <g id="Web-English-home" stroke="none" stroke-width="1" fill="none" fill-rule="evenodd">
        <g id="未苒网络科技-首页" transform="translate(-189.000000, -4676.000000)" fill="#FFFFFF">
            <g id="Footer" transform="translate(0.000000, 4177.000000)">
                <g id="Social" transform="translate(135.000000, 499.000000)">
                    <path d="M69,0 C77.2842717,0 84,6.71572834 84,15 C84,23.2842717 77.2842717,30 69,30 C60.7157283,30 54,23.2842717 54,15 C54,6.71572834 60.7157283,0 69,0 Z M66.8211977,8.25418739 C64.4359022,8.25418739 58.2,13.4862913 58.2,16.8 C58.2,20.1137087 62.3637516,22.8 67.5,22.8 C72.6362484,22.8 76.7599272,20.1137087 76.7599274,16.8 C76.7599274,14.0005806 73.2542667,14.0005806 73.2542667,13.8198761 C73.2542667,13.6391716 75,12.0128345 73.2542667,11.000891 C71.5085335,9.98894749 68.3153686,11.527474 68.4113949,11.3622994 C69.7847466,9 67.8217774,8.25418739 66.8211977,8.25418739 Z M66.6572249,13.2379545 C69.9386848,12.7767754 72.841842,14.1320125 73.1416084,16.2649614 C73.4413748,18.3979103 71.024235,20.5008664 67.7427751,20.9620455 C64.4613152,21.4232246 61.558158,20.0679875 61.2583916,17.9350386 C60.9586252,15.8020897 63.375765,13.6991336 66.6572249,13.2379545 Z M65.9914322,14.4912593 C64.0397363,14.8706305 62.7138586,16.49664 63.0300013,18.1230532 C63.346144,19.7494665 65.1845902,20.7603936 67.1362861,20.3810224 C69.0879821,20.0016511 70.4138597,18.3756417 70.097717,16.7492285 C69.7815743,15.1228152 67.9431281,14.111888 65.9914322,14.4912593 Z M65.0557844,17.1373088 C65.6564324,16.8572221 66.3136451,16.9953579 66.5237102,17.4458439 C66.7337753,17.8963299 66.4171453,18.4885761 65.8164973,18.7686629 C65.2158493,19.0487496 64.5586366,18.9106138 64.3485715,18.4601278 C64.1385064,18.0096418 64.4551364,17.4173956 65.0557844,17.1373088 Z M67.2,16.2 C67.5313709,16.2 67.8,16.4686291 67.8,16.8 C67.8,17.1313709 67.5313709,17.4 67.2,17.4 C66.8686291,17.4 66.6,17.1313709 66.6,16.8 C66.6,16.4686291 66.8686291,16.2 67.2,16.2 Z M73.4937775,6.03300536 C72.9437838,6.02085312 72.4632139,6.30836865 72.2039444,6.74661993 L72.175,6.799 L72.2297115,6.89544602 C72.4964625,7.3142251 72.969214,7.59420515 73.5067224,7.61870388 C73.5067224,7.61870388 75.4588577,7.28823584 76.6515052,9.00000014 C77.8441526,10.7117645 77.3862877,12.0156799 77.3862877,12.0156799 C77.3286551,12.5602064 77.5739298,13.0359992 77.9925989,13.2926914 L78.043,13.32 L78.1390296,13.2701678 C78.5910765,13.0085478 78.9176495,12.5420248 78.9466391,11.9986215 C78.9466391,11.9986215 79.5427723,9.4829759 77.5550262,7.60365228 C75.5672803,5.72432849 73.4937775,6.03300536 73.4937775,6.03300536 Z M73.589634,8.91027425 C73.2382742,8.9421305 72.9296813,9.15222653 72.7540741,9.44676031 L72.725,9.501 L72.7563427,9.55632058 C72.9343964,9.83111033 73.246893,10.0136761 73.6009328,10.0317344 C73.6009328,10.0317344 74.2300692,9.84438442 74.8083225,10.5310602 C75.3865757,11.217736 75.0406815,11.7803697 75.0406815,11.7803697 C74.9465741,12.1672672 75.1111195,12.5004442 75.4185299,12.6506259 L75.453,12.665 L75.5319976,12.6343296 C75.8890474,12.4722044 76.1679346,12.1327133 76.2036325,11.7423093 C76.2036325,11.7423093 76.6153642,10.5310602 75.5311392,9.55525754 C74.4469142,8.57945484 73.589634,8.91027425 73.589634,8.91027425 Z" id="icon_sina_weibo_while"></path>
                </g>
            </g>
        </g>
    </g>
</svg>