<?xml version="1.0" encoding="UTF-8"?>
<svg width="18px" height="19px" viewBox="0 0 18 19" version="1.1" xmlns="http://www.w3.org/2000/svg" xmlns:xlink="http://www.w3.org/1999/xlink">
    <title>icon_search</title>
    <g id="Web-English-home" stroke="none" stroke-width="1" fill="none" fill-rule="evenodd">
        <g id="未苒网络科技-首页" transform="translate(-1239.000000, -41.000000)">
            <g id="编组" transform="translate(1237.000000, 39.000000)">
                <g id="icon_search" transform="translate(0.000000, 0.000000)">
                    <rect id="矩形" x="0" y="2.27373675e-13" width="22" height="22"></rect>
                    <path d="M19.7263218,19.3320136 L15.2890139,14.6218025 C16.4299237,13.2375663 17.0550349,11.4959139 17.0550349,9.6827782 C17.0550349,5.44656111 13.6781252,2 9.52751747,2 C5.37690979,2 2,5.44656111 2,9.6827782 C2,13.9189953 5.37690979,17.3655564 9.52751747,17.3655564 C11.0857136,17.3655564 12.5705982,16.8858838 13.8401304,15.9753076 L18.3111485,20.7212603 C18.4980273,20.9193424 18.7493809,21.0285714 19.0187352,21.0285714 C19.2736889,21.0285714 19.5155513,20.9293634 19.6991573,20.7489851 C20.0892791,20.3658483 20.1017158,19.7305159 19.7263218,19.3320136 Z M9.52751747,4.00420301 C12.5954718,4.00420301 15.0913347,6.55154503 15.0913347,9.6827782 C15.0913347,12.8140114 12.5954718,15.3613534 9.52751747,15.3613534 C6.45956318,15.3613534 3.96370021,12.8140114 3.96370021,9.6827782 C3.96370021,6.55154503 6.45956318,4.00420301 9.52751747,4.00420301 Z" fill="currentColor" fill-rule="nonzero"></path>
                </g>
            </g>
        </g>
    </g>
</svg>
