<?xml version="1.0" encoding="UTF-8"?>
<svg width="18px" height="18px" viewBox="0 0 18 18" version="1.1" xmlns="http://www.w3.org/2000/svg" xmlns:xlink="http://www.w3.org/1999/xlink">
    <title>icon_phone</title>
    <g id="Web-English-home" stroke="none" stroke-width="1" fill="none" fill-rule="evenodd">
        <g id="未苒网络科技-首页" transform="translate(-1285.000000, -41.000000)" fill="currentColor" fill-rule="nonzero">
            <g id="编组" transform="translate(1283.000000, 39.000000)">
                <g id="phone" transform="translate(3.000000, 3.000000)">
                    <path d="M4.02086545,-1.00012443 L1.60744056,-1.00012443 C0.874469269,-0.99918362 0.176479998,-0.691453632 -0.317241209,-0.151664593 C-0.811407391,0.388610942 -1.05539396,1.11159074 -0.989390306,1.84053801 C-0.707141811,4.49431267 0.19227312,7.02932268 1.63748612,9.25580117 C2.94674464,11.312183 4.69985991,13.0618256 6.76755926,14.3731251 C8.98013,15.8051777 11.507189,16.7023624 14.1379313,16.9876478 C14.8870733,17.0553813 15.6123037,16.8106006 16.1535631,16.3150161 C16.695261,15.81903 17.0024752,15.1177912 16.9994893,14.3836465 L16.9994976,11.9790694 C17.0320858,10.6807334 16.0667263,9.54364167 14.7552217,9.35898693 C14.0485943,9.26593371 13.3635435,9.09561853 12.7042228,8.85007921 L12.5246531,8.79004614 C11.620723,8.52393057 10.6342408,8.7667451 9.95535,9.43675077 L9.486,9.904 L9.44837838,9.88092685 C8.22800101,9.07532572 7.16827908,8.0520734 6.32192013,6.86380698 L6.074,6.501 L6.5373395,6.03901888 C7.21304749,5.35708083 7.4570246,4.37037191 7.18918571,3.4646165 L7.12876999,3.28465909 C6.88371961,2.62924726 6.71316255,1.94593875 6.62119608,1.25002237 C6.43649078,-0.0544885314 5.32014486,-1.01268263 4.02086545,-1.00012443 Z M1.60855521,0.999923303 L4.03058987,0.999923303 C4.33678027,0.99697505 4.59708767,1.2204049 4.63969555,1.52125883 C4.75019827,2.35777011 4.95746521,3.18815065 5.25627802,3.98734537 C5.34029446,4.21041907 5.28711129,4.45929508 5.12057922,4.62736772 L4.10284551,5.6430633 C3.78373239,5.96154431 3.7171927,6.4541771 3.94037807,6.84590612 C5.17472208,9.01239382 6.97200148,10.806113 9.14254661,12.0378743 C9.5334647,12.2597161 10.024362,12.1934805 10.3425061,11.8759666 L11.3641893,10.8563073 C11.5293465,10.6933335 11.7808898,10.6397931 12.0039761,10.7234849 C12.8066656,11.0224196 13.6383083,11.22918 14.4852978,11.3406681 C14.7827751,11.3825926 15.0074389,11.647223 14.9998065,11.9542151 L14.9994976,14.3877135 C15.0001978,14.5619134 14.9289261,14.7245962 14.8029579,14.8399345 C14.6765511,14.9556743 14.5068131,15.0129645 14.3355736,14.9975193 C12.0332892,14.7476887 9.80455818,13.9564198 7.84646508,12.6891189 C6.01888711,11.5300497 4.47608138,9.99030007 3.31980539,8.17426295 C2.04111325,6.2042539 1.24833915,3.96981214 1.0009221,1.64455356 C0.987169668,1.49130362 1.04373301,1.3236954 1.15854435,1.19817131 C1.27376846,1.07219595 1.43709031,1.0001905 1.60855521,0.999923303 Z" id="Shape"></path>
                </g>
            </g>
        </g>
    </g>
</svg>
