<?xml version="1.0" encoding="UTF-8"?>
<svg width="1526px" height="1033px" viewBox="0 0 1526 1033" version="1.1" xmlns="http://www.w3.org/2000/svg" xmlns:xlink="http://www.w3.org/1999/xlink">
    <title>Image_Portfolio</title>
    <defs>
        <linearGradient x1="0%" y1="0%" x2="100%" y2="0%" id="linearGradient-1">
            <stop stop-color="#CCDDF8" offset="0%"></stop>
            <stop stop-color="#F3F7FA" offset="100%"></stop>
        </linearGradient>
        <linearGradient x1="0%" y1="0%" x2="100%" y2="0%" id="linearGradient-2">
            <stop stop-color="#CCDDF8" offset="0%"></stop>
            <stop stop-color="#F3F7FA" offset="100%"></stop>
        </linearGradient>
        <linearGradient x1="50%" y1="0%" x2="50%" y2="100%" id="linearGradient-3">
            <stop stop-color="#F4FAFE" offset="0%"></stop>
            <stop stop-color="#D0E0F8" offset="100%"></stop>
        </linearGradient>
        <linearGradient x1="43.9932687%" y1="100%" x2="25.4658077%" y2="5.6337007%" id="linearGradient-4">
            <stop stop-color="#EBF2FD" stop-opacity="0.5" offset="0%"></stop>
            <stop stop-color="#D2E2F9" stop-opacity="0.5" offset="100%"></stop>
        </linearGradient>
        <linearGradient x1="20.859375%" y1="6.41335227%" x2="50%" y2="100%" id="linearGradient-5">
            <stop stop-color="#EBF2FD" stop-opacity="0.7" offset="0%"></stop>
            <stop stop-color="#D2E2F9" stop-opacity="0.7" offset="100%"></stop>
        </linearGradient>
    </defs>
    <g id="Web-English-home" stroke="none" stroke-width="1" fill="none" fill-rule="evenodd">
        <g id="未苒网络科技-首页" transform="translate(0.000000, -2400.000000)">
            <g id="Image_Portfolio" transform="translate(0.000000, 2740.000000)">
                <path d="M40.8476475,154.352702 C99.0256684,173.54052 90.9301534,197.19878 131.367175,197.19878 C171.804196,197.19878 187.924565,166.025226 240.588706,177.082278 C293.252847,188.139331 323.349441,274.522553 277.400442,317.36863 C231.451444,360.214708 264.941675,392.003734 282.684577,424.483825 C300.427479,456.963917 259.94962,530.447244 190.274552,492.899337 C143.824507,467.867399 107.389147,478.310171 80.9684729,524.227652 C54.8949425,548.941746 27.9056769,553.539784 0,538.021765 L0,149.674447 C12.5714358,147.958129 26.1873183,149.517547 40.8476475,154.352702 Z M1439.99843,9.09494702e-13 L1439.99649,211 C1423.16023,200.476844 1420.54811,191.142418 1398.61559,191.142418 C1368.73323,191.142418 1356.82051,213.974404 1317.90249,205.87605 C1278.98447,197.777697 1256.74354,134.509309 1290.69917,103.128189 C1324.6548,71.7470693 1299.90601,48.4643029 1286.79427,24.6753893 C1283.11287,17.996153 1282.82318,8.94947183 1285.45047,9.09494702e-13 L1439.99843,9.09494702e-13 Z" id="形状" fill="#F8FAFF"></path>
                <g id="Bg-Shape" transform="translate(0.000000, 144.000000)">
                    <rect id="Rectangle-6-Copy-2" stroke="url(#linearGradient-1)" x="0.5" y="63.5" width="199" height="1"></rect>
                    <rect id="Rectangle-6-Copy-3" stroke="url(#linearGradient-2)" x="0.5" y="255.5" width="399" height="1"></rect>
                    <rect id="Rectangle-11" fill="url(#linearGradient-3)" x="174" y="0" width="1" height="531"></rect>
                    <circle id="Oval-5-Copy-3" stroke-opacity="0.4" stroke="#D2E2F9" fill="#F5FBFF" cx="176" cy="255" r="30"></circle>
                    <circle id="Oval-5-Copy-2" stroke-opacity="0.75" stroke="#D2E2F9" fill="#F5FBFE" cx="176.5" cy="255.5" r="17.5"></circle>
                    <circle id="Oval-5-Copy" stroke="#D0E5FF" stroke-width="4" fill="#F3F7FA" cx="176.5" cy="255.5" r="6.5"></circle>
                    <ellipse id="Oval-5-Copy-9" stroke="url(#linearGradient-4)" cx="1310" cy="332.5" rx="215" ry="215.5"></ellipse>
                    <circle id="Oval-5-Copy-8" stroke="url(#linearGradient-5)" cx="1310" cy="333" r="110"></circle>
                    <circle id="Oval-5-Copy-7" stroke="#D0E5FF" stroke-width="10" fill="#FFFFFF" cx="1310.5" cy="332.5" r="25.5"></circle>
                </g>
                <path d="M1231,485.5 C1231.9665,485.5 1232.8415,485.891751 1233.47487,486.525126 C1234.10825,487.158502 1234.5,488.033502 1234.5,489 C1234.5,489.966498 1234.10825,490.841498 1233.47487,491.474874 C1232.8415,492.108249 1231.9665,492.5 1231,492.5 C1230.0335,492.5 1229.1585,492.108249 1228.52513,491.474874 C1227.89175,490.841498 1227.5,489.966498 1227.5,489 C1227.5,488.033502 1227.89175,487.158502 1228.52513,486.525126 C1229.1585,485.891751 1230.0335,485.5 1231,485.5 L1231,485.5 Z M314,479.5 C314.966498,479.5 315.841498,479.891751 316.474874,480.525126 C317.108249,481.158502 317.5,482.033502 317.5,483 C317.5,483.966498 317.108249,484.841498 316.474874,485.474874 C315.841498,486.108249 314.966498,486.5 314,486.5 C313.033502,486.5 312.158502,486.108249 311.525126,485.474874 C310.891751,484.841498 310.5,483.966498 310.5,483 C310.5,482.033502 310.891751,481.158502 311.525126,480.525126 C312.158502,479.891751 313.033502,479.5 314,479.5 Z M1086,367.5 C1086.9665,367.5 1087.8415,367.891751 1088.47487,368.525126 C1089.10825,369.158502 1089.5,370.033502 1089.5,371 C1089.5,371.966498 1089.10825,372.841498 1088.47487,373.474874 C1087.8415,374.108249 1086.9665,374.5 1086,374.5 C1085.0335,374.5 1084.1585,374.108249 1083.52513,373.474874 C1082.89175,372.841498 1082.5,371.966498 1082.5,371 C1082.5,370.033502 1082.89175,369.158502 1083.52513,368.525126 C1084.1585,367.891751 1085.0335,367.5 1086,367.5 Z M1405,333.5 C1405.9665,333.5 1406.8415,333.891751 1407.47487,334.525126 C1408.10825,335.158502 1408.5,336.033502 1408.5,337 C1408.5,337.966498 1408.10825,338.841498 1407.47487,339.474874 C1406.8415,340.108249 1405.9665,340.5 1405,340.5 C1404.0335,340.5 1403.1585,340.108249 1402.52513,339.474874 C1401.89175,338.841498 1401.5,337.966498 1401.5,337 C1401.5,336.033502 1401.89175,335.158502 1402.52513,334.525126 C1403.1585,333.891751 1404.0335,333.5 1405,333.5 Z M174,203.5 C174.966498,203.5 175.841498,203.891751 176.474874,204.525126 C177.108249,205.158502 177.5,206.033502 177.5,207 C177.5,207.966498 177.108249,208.841498 176.474874,209.474874 C175.841498,210.108249 174.966498,210.5 174,210.5 C173.033502,210.5 172.158502,210.108249 171.525126,209.474874 C170.891751,208.841498 170.5,207.966498 170.5,207 C170.5,206.033502 170.891751,205.158502 171.525126,204.525126 C172.158502,203.891751 173.033502,203.5 174,203.5 Z M1246,137.5 C1246.9665,137.5 1247.8415,137.891751 1248.47487,138.525126 C1249.10825,139.158502 1249.5,140.033502 1249.5,141 C1249.5,141.966498 1249.10825,142.841498 1248.47487,143.474874 C1247.8415,144.108249 1246.9665,144.5 1246,144.5 C1245.0335,144.5 1244.1585,144.108249 1243.52513,143.474874 C1242.89175,142.841498 1242.5,141.966498 1242.5,141 C1242.5,140.033502 1242.89175,139.158502 1243.52513,138.525126 C1244.1585,137.891751 1245.0335,137.5 1246,137.5 Z M74,92.5 C74.9664983,92.5 75.8414983,92.8917508 76.4748737,93.5251263 C77.1082492,94.1585017 77.5,95.0335017 77.5,96 C77.5,96.9664983 77.1082492,97.8414983 76.4748737,98.4748737 C75.8414983,99.1082492 74.9664983,99.5 74,99.5 C73.0335017,99.5 72.1585017,99.1082492 71.5251263,98.4748737 C70.8917508,97.8414983 70.5,96.9664983 70.5,96 C70.5,95.0335017 70.8917508,94.1585017 71.5251263,93.5251263 C72.1585017,92.8917508 73.0335017,92.5 74,92.5 Z M540,36.5 C540.966498,36.5 541.841498,36.8917508 542.474874,37.5251263 C543.108249,38.1585017 543.5,39.0335017 543.5,40 C543.5,40.9664983 543.108249,41.8414983 542.474874,42.4748737 C541.841498,43.1082492 540.966498,43.5 540,43.5 C539.033502,43.5 538.158502,43.1082492 537.525126,42.4748737 C536.891751,41.8414983 536.5,40.9664983 536.5,40 C536.5,39.0335017 536.891751,38.1585017 537.525126,37.5251263 C538.158502,36.8917508 539.033502,36.5 540,36.5 Z M441,-339.5 C441.966498,-339.5 442.841498,-339.108249 443.474874,-338.474874 C444.108249,-337.841498 444.5,-336.966498 444.5,-336 C444.5,-335.033502 444.108249,-334.158502 443.474874,-333.525126 C442.841498,-332.891751 441.966498,-332.5 441,-332.5 C440.033502,-332.5 439.158502,-332.891751 438.525126,-333.525126 C437.891751,-334.158502 437.5,-335.033502 437.5,-336 C437.5,-336.966498 437.891751,-337.841498 438.525126,-338.474874 C439.158502,-339.108249 440.033502,-339.5 441,-339.5 Z" id="形状结合" stroke="#1A82FF" fill="#D0E5FF"></path>
            </g>
        </g>
    </g>
</svg>