<?xml version="1.0" encoding="UTF-8"?>
<svg width="1339px" height="457px" viewBox="0 0 1339 457" version="1.1" xmlns="http://www.w3.org/2000/svg" xmlns:xlink="http://www.w3.org/1999/xlink">
    <title>形状结合</title>
    <g id="Web-English-home" stroke="none" stroke-width="1" fill="none" fill-rule="evenodd">
        <g id="未苒网络科技-首页" transform="translate(-70.000000, -2776.000000)" fill="#D0E5FF" stroke="#1A82FF">
            <g id="Image_Portfolio" transform="translate(0.000000, 2740.000000)">
                <path d="M1231,485.5 C1231.9665,485.5 1232.8415,485.891751 1233.47487,486.525126 C1234.10825,487.158502 1234.5,488.033502 1234.5,489 C1234.5,489.966498 1234.10825,490.841498 1233.47487,491.474874 C1232.8415,492.108249 1231.9665,492.5 1231,492.5 C1230.0335,492.5 1229.1585,492.108249 1228.52513,491.474874 C1227.89175,490.841498 1227.5,489.966498 1227.5,489 C1227.5,488.033502 1227.89175,487.158502 1228.52513,486.525126 C1229.1585,485.891751 1230.0335,485.5 1231,485.5 L1231,485.5 Z M314,479.5 C314.966498,479.5 315.841498,479.891751 316.474874,480.525126 C317.108249,481.158502 317.5,482.033502 317.5,483 C317.5,483.966498 317.108249,484.841498 316.474874,485.474874 C315.841498,486.108249 314.966498,486.5 314,486.5 C313.033502,486.5 312.158502,486.108249 311.525126,485.474874 C310.891751,484.841498 310.5,483.966498 310.5,483 C310.5,482.033502 310.891751,481.158502 311.525126,480.525126 C312.158502,479.891751 313.033502,479.5 314,479.5 Z M1086,367.5 C1086.9665,367.5 1087.8415,367.891751 1088.47487,368.525126 C1089.10825,369.158502 1089.5,370.033502 1089.5,371 C1089.5,371.966498 1089.10825,372.841498 1088.47487,373.474874 C1087.8415,374.108249 1086.9665,374.5 1086,374.5 C1085.0335,374.5 1084.1585,374.108249 1083.52513,373.474874 C1082.89175,372.841498 1082.5,371.966498 1082.5,371 C1082.5,370.033502 1082.89175,369.158502 1083.52513,368.525126 C1084.1585,367.891751 1085.0335,367.5 1086,367.5 Z M1405,333.5 C1405.9665,333.5 1406.8415,333.891751 1407.47487,334.525126 C1408.10825,335.158502 1408.5,336.033502 1408.5,337 C1408.5,337.966498 1408.10825,338.841498 1407.47487,339.474874 C1406.8415,340.108249 1405.9665,340.5 1405,340.5 C1404.0335,340.5 1403.1585,340.108249 1402.52513,339.474874 C1401.89175,338.841498 1401.5,337.966498 1401.5,337 C1401.5,336.033502 1401.89175,335.158502 1402.52513,334.525126 C1403.1585,333.891751 1404.0335,333.5 1405,333.5 Z M174,203.5 C174.966498,203.5 175.841498,203.891751 176.474874,204.525126 C177.108249,205.158502 177.5,206.033502 177.5,207 C177.5,207.966498 177.108249,208.841498 176.474874,209.474874 C175.841498,210.108249 174.966498,210.5 174,210.5 C173.033502,210.5 172.158502,210.108249 171.525126,209.474874 C170.891751,208.841498 170.5,207.966498 170.5,207 C170.5,206.033502 170.891751,205.158502 171.525126,204.525126 C172.158502,203.891751 173.033502,203.5 174,203.5 Z M1246,137.5 C1246.9665,137.5 1247.8415,137.891751 1248.47487,138.525126 C1249.10825,139.158502 1249.5,140.033502 1249.5,141 C1249.5,141.966498 1249.10825,142.841498 1248.47487,143.474874 C1247.8415,144.108249 1246.9665,144.5 1246,144.5 C1245.0335,144.5 1244.1585,144.108249 1243.52513,143.474874 C1242.89175,142.841498 1242.5,141.966498 1242.5,141 C1242.5,140.033502 1242.89175,139.158502 1243.52513,138.525126 C1244.1585,137.891751 1245.0335,137.5 1246,137.5 Z M74,92.5 C74.9664983,92.5 75.8414983,92.8917508 76.4748737,93.5251263 C77.1082492,94.1585017 77.5,95.0335017 77.5,96 C77.5,96.9664983 77.1082492,97.8414983 76.4748737,98.4748737 C75.8414983,99.1082492 74.9664983,99.5 74,99.5 C73.0335017,99.5 72.1585017,99.1082492 71.5251263,98.4748737 C70.8917508,97.8414983 70.5,96.9664983 70.5,96 C70.5,95.0335017 70.8917508,94.1585017 71.5251263,93.5251263 C72.1585017,92.8917508 73.0335017,92.5 74,92.5 Z M540,36.5 C540.966498,36.5 541.841498,36.8917508 542.474874,37.5251263 C543.108249,38.1585017 543.5,39.0335017 543.5,40 C543.5,40.9664983 543.108249,41.8414983 542.474874,42.4748737 C541.841498,43.1082492 540.966498,43.5 540,43.5 C539.033502,43.5 538.158502,43.1082492 537.525126,42.4748737 C536.891751,41.8414983 536.5,40.9664983 536.5,40 C536.5,39.0335017 536.891751,38.1585017 537.525126,37.5251263 C538.158502,36.8917508 539.033502,36.5 540,36.5 Z M441,-339.5 C441.966498,-339.5 442.841498,-339.108249 443.474874,-338.474874 C444.108249,-337.841498 444.5,-336.966498 444.5,-336 C444.5,-335.033502 444.108249,-334.158502 443.474874,-333.525126 C442.841498,-332.891751 441.966498,-332.5 441,-332.5 C440.033502,-332.5 439.158502,-332.891751 438.525126,-333.525126 C437.891751,-334.158502 437.5,-335.033502 437.5,-336 C437.5,-336.966498 437.891751,-337.841498 438.525126,-338.474874 C439.158502,-339.108249 440.033502,-339.5 441,-339.5 Z" id="形状结合"></path>
            </g>
        </g>
    </g>
</svg>
