<?xml version="1.0" encoding="UTF-8"?>
<svg width="48px" height="36px" viewBox="0 0 48 36" version="1.1" xmlns="http://www.w3.org/2000/svg" xmlns:xlink="http://www.w3.org/1999/xlink">
    <title>icon_Marketing</title>
    <g id="Web-English-home" stroke="none" stroke-width="1" fill="none" fill-rule="evenodd">
        <g id="未苒网络科技-首页" transform="translate(-182.000000, -2432.000000)" fill="currentColor" fill-rule="nonzero">
            <g id="服务内容" transform="translate(0.000000, 1860.000000)">
                <g id="营销" transform="translate(136.000000, 520.000000)">
                    <path d="M79.742,54.624 C79.178,53.096 77.722,52 76,52 C73.404,52 71.374,54.488 72.192,57.164 C74.414,56.374 76.884,54.958 79.742,54.624 L79.742,54.624 Z M72,72 C72,70.896 71.106,70 70,70 C68.894,70 68,70.896 68,72 C68,73.104 68.894,74 70,74 C71.106,74 72,73.104 72,72 Z M82.636,81.746 C85.562,81.124 87.578,78.766 86.928,75.292 C89.726,78.326 86.618,83.19 82.636,81.746 Z M54.634,81.746 C57.56,81.124 59.576,78.766 58.926,75.292 C61.724,78.326 58.614,83.19 54.634,81.746 Z M64,52 C62.278,52 60.822,53.096 60.258,54.624 C63.116,54.96 65.586,56.374 67.808,57.164 C68.626,54.488 66.596,52 64,52 L64,52 Z M66.268,62.988 C68.684,63.78 71.302,63.784 73.73,62.988 C78.96,61.28 80.76,59.016 82.634,62.326 C83.418,63.708 85.298,67 85.964,68.194 C80.256,67.044 74.82,71.026 74.084,76.702 C71.618,75.462 68.496,75.408 65.916,76.702 C65.178,71.024 59.744,67.044 54.034,68.194 C54.862,66.718 56.4,64.032 57.364,62.328 C59.236,59.018 61.032,61.276 66.268,62.988 Z M80.61,56.638 C77.824,56.638 74.89,58.4 72.486,59.186 C70.862,59.718 69.116,59.712 67.514,59.186 C65.112,58.4 62.176,56.638 59.39,56.638 C57.394,56.638 55.474,57.542 53.882,60.356 C49.07,68.866 46,73.73 46,78 C46,83.522 50.476,88 56,88 C64.078,88 64.312,79.754 70,79.754 C75.688,79.754 75.922,88 84,88 C89.524,88 94,83.522 94,78 C94,73.73 90.93,68.866 86.118,60.358 C84.524,57.542 82.606,56.638 80.61,56.638 Z M84,84 C80.692,84 78,81.308 78,78 C78,74.692 80.692,72 84,72 C87.308,72 90,74.692 90,78 C90,81.308 87.308,84 84,84 Z M56,84 C52.692,84 50,81.308 50,78 C50,74.692 52.692,72 56,72 C59.308,72 62,74.692 62,78 C62,81.308 59.308,84 56,84 Z" id="icon_Marketing"></path>
                </g>
            </g>
        </g>
    </g>
</svg>
