<?xml version="1.0" encoding="UTF-8"?>
<svg width="40px" height="48px" viewBox="0 0 40 48" version="1.1" xmlns="http://www.w3.org/2000/svg" xmlns:xlink="http://www.w3.org/1999/xlink">
    <title>icon_Creativity_active</title>
    <g id="Web-English-home" stroke="none" stroke-width="1" fill="none" fill-rule="evenodd">
        <g id="未苒网络科技-首页" transform="translate(-186.000000, -2194.000000)" fill="currentColor" fill-rule="nonzero">
            <g id="服务内容" transform="translate(0.000000, 1860.000000)">
                <g id="创意" transform="translate(136.000000, 288.000000)">
                    <path d="M74,84 L66,84 C65.448,84 65,84.448 65,85 C65,85.552 65.448,86 66,86 L74,86 C74.552,86 75,85.552 75,85 C75,84.448 74.552,84 74,84 Z M74,88 L66,88 C65.448,88 65,88.448 65,89 C65,89.552 65.448,90 66,90 L74,90 C74.552,90 75,89.552 75,89 C75,88.448 74.552,88 74,88 Z M74.5,92 L65.5,92 L67.876,93.564 C68.184,93.84 68.636,94 69.106,94 L70.896,94 C71.364,94 71.818,93.84 72.126,93.564 L74.5,92 Z M82,64.402 C82,71.54 75.572,76.368 75.572,82 L71.594,82 C71.588,78.284 73.334,75.222 75.036,72.266 C76.558,69.616 78,67.112 78,64.402 C78,59.218 73.85,56.858 69.994,56.858 C66.144,56.858 62,59.218 62,64.402 C62,67.112 63.442,69.616 64.964,72.266 C66.666,75.222 68.414,78.284 68.404,82 L64.428,82 C64.428,76.368 58,71.54 58,64.402 C58,56.956 63.996,52.858 69.994,52.858 C75.996,52.858 82,56.96 82,64.402 Z M90,63.02 L90,65.764 L84.924,65.764 C84.964,65.318 85,64.868 85,64.402 C85,63.928 84.966,63.474 84.93,63.022 L90,63.022 L90,63.02 Z M68.704,49.914 L68.704,46 L71.446,46 L71.446,49.928 C70.962,49.884 70.478,49.858 69.994,49.858 C69.564,49.858 69.134,49.878 68.704,49.914 Z M61.218,52.502 L59.138,48.622 L61.554,47.326 L63.628,51.192 C62.792,51.554 61.984,51.994 61.218,52.502 Z M82.39,55.972 L86.274,53.184 L87.872,55.414 L83.764,58.36 C83.382,57.5 82.918,56.706 82.39,55.972 Z M76.37,51.194 L78.446,47.326 L80.862,48.622 L78.78,52.504 C78.016,51.996 77.208,51.558 76.37,51.194 L76.37,51.194 Z M56.234,58.36 L52.126,55.416 L53.724,53.186 L57.608,55.972 C57.08,56.704 56.618,57.498 56.234,58.36 Z M83.648,70.806 L88.356,72.714 L87.328,75.256 L82.478,73.292 C82.898,72.498 83.294,71.668 83.648,70.806 L83.648,70.806 Z M57.432,73.116 L52.72,75.236 L51.596,72.734 L56.276,70.63 C56.622,71.496 57.018,72.32 57.432,73.116 L57.432,73.116 Z M55.076,65.764 L50,65.764 L50,63.02 L55.07,63.02 C55.034,63.472 55,63.928 55,64.402 C55,64.868 55.036,65.318 55.076,65.764 L55.076,65.764 Z" id="icon_Creativity_active"></path>
                </g>
            </g>
        </g>
    </g>
</svg>
