<?xml version="1.0" encoding="UTF-8"?>
<svg width="48px" height="48px" viewBox="0 0 48 48" version="1.1" xmlns="http://www.w3.org/2000/svg" xmlns:xlink="http://www.w3.org/1999/xlink">
    <title>icon_Operation</title>
    <g id="Web-English-home" stroke="none" stroke-width="1" fill="none" fill-rule="evenodd">
        <g id="未苒网络科技-首页" transform="translate(-346.000000, -2426.000000)" fill="currentColor" fill-rule="nonzero">
            <g id="服务内容" transform="translate(0.000000, 1860.000000)">
                <g id="运营" transform="translate(300.000000, 520.000000)">
                    <path d="M93.896,46.084 C93.07,46.028 92.262,46 91.468,46 C74.268,46 64.474,59.114 60.912,69.666 L70.366,79.12 C81.222,75.232 94,65.8 94,48.784 C94,47.904 93.966,47.004 93.896,46.084 Z M71.342,74.44 L65.576,68.674 C68.018,62.956 74.958,50.784 89.974,50.034 C89.472,61.584 81.892,69.898 71.342,74.44 Z M82.284,77.516 C81.19,78.262 80.104,78.936 79.028,79.538 C78.654,81.32 77.704,83.222 76.326,84.842 C76.322,83.69 76.002,82.53 75.44,81.366 C74.45,81.816 73.508,82.202 72.612,82.542 C73.932,85.96 72.588,88.484 70.782,90.85 C73.374,90.654 76.094,89.386 78.238,87.24 C80.548,84.93 82.172,81.594 82.284,77.516 L82.284,77.516 Z M58.644,64.578 C57.486,64.018 56.328,63.702 55.18,63.696 C56.786,62.334 58.668,61.39 60.432,61.006 C61.06,59.902 61.766,58.812 62.51,57.74 C58.432,57.85 55.094,59.474 52.782,61.786 C50.64,63.928 49.37,66.652 49.174,69.242 C51.542,67.434 54.066,66.09 57.484,67.414 C57.83,66.472 58.216,65.526 58.644,64.578 Z M74.12,65.904 C73.338,65.122 73.338,63.858 74.12,63.076 C74.902,62.294 76.166,62.294 76.948,63.076 C77.73,63.86 77.73,65.124 76.948,65.906 C76.166,66.688 74.9,66.686 74.12,65.904 L74.12,65.904 Z M84.018,56.002 C82.458,54.442 79.924,54.442 78.362,56.002 C76.8,57.564 76.8,60.1 78.362,61.66 C79.924,63.222 82.458,63.222 84.02,61.66 C85.58,60.1 85.58,57.566 84.018,56.002 L84.018,56.002 Z M80.202,59.824 C79.656,59.278 79.656,58.388 80.202,57.844 C80.744,57.298 81.636,57.298 82.182,57.844 C82.726,58.388 82.724,59.278 82.182,59.824 C81.634,60.368 80.746,60.368 80.202,59.824 Z M66.708,81.124 C63.724,88.744 55.102,93.54 46,94 C46.438,85.422 51.314,76.648 59.28,73.694 L60.89,75.306 C52.228,80.816 51.584,85.998 51.56,88.456 C54.096,88.426 59.668,87.768 65.116,79.528 L66.708,81.124 Z" id="icon_Operation"></path>
                </g>
            </g>
        </g>
    </g>
</svg>
