<?xml version="1.0" encoding="UTF-8"?>
<svg width="48px" height="46px" viewBox="0 0 48 46" version="1.1" xmlns="http://www.w3.org/2000/svg" xmlns:xlink="http://www.w3.org/1999/xlink">
    <title>icon_Development</title>
    <g id="Web-English-home" stroke="none" stroke-width="1" fill="none" fill-rule="evenodd">
        <g id="未苒网络科技-首页" transform="translate(-346.000000, -2195.000000)" fill="currentColor">
            <g id="服务内容" transform="translate(0.000000, 1860.000000)">
                <g id="开发" transform="translate(300.000000, 288.000000)">
                    <path d="M90.3789184,51.5576128 C90.4922986,51.6181195 90.6151272,51.6663357 90.7096107,51.7391328 C90.8891295,51.8648732 91.0308548,52.0322119 91.1725801,52.1986052 C91.3993406,52.4680489 91.6261011,52.7469467 91.8339649,53.0324625 C92.7315585,54.259613 93.440185,55.628576 93.9220511,57.0703361 L93.9976379,57.438103 C93.9976379,57.562898 94.0070863,57.6895838 93.9881896,57.8134334 C93.9598445,58.0630233 93.865361,58.3022137 93.7236356,58.5102053 C93.6574972,58.6142011 93.5630136,58.700234 93.4779784,58.7947756 L90.9552679,61.1101005 C90.9552679,61.1365721 90.9647163,61.1630438 90.9647163,61.1904609 C90.983613,61.6026624 90.983613,62.0129732 90.9552679,62.4223385 L93.4779784,64.7376633 C93.6952906,64.9881987 93.7803258,65.0392511 93.9031544,65.3550202 C94.1299149,65.9440147 93.893706,66.5972974 93.6386005,67.2430168 C93.0055607,68.8133535 92.1079671,70.2730765 90.9930614,71.5418254 L90.7096107,71.7933061 C90.6056789,71.8538128 90.501747,71.9275553 90.3883667,71.9748261 C90.1521579,72.0703131 89.8970523,72.1100206 89.6419468,72.0911123 C89.5191182,72.0826036 89.3962896,72.0447869 89.273461,72.0211515 L86.0137788,70.9934838 C85.9759854,71.0171192 85.938192,71.0398092 85.909847,71.0624992 C85.5791546,71.2704908 85.2484622,71.461465 84.9083214,71.6354216 L84.8799764,71.6496028 L84.1335564,74.9916499 L84.0107278,75.3480719 C83.8312091,75.6279152 83.802864,75.7215114 83.5383101,75.9285576 C83.0942375,76.2736346 82.4895428,76.3218508 81.9037449,76.4003204 C80.3069731,76.6168208 78.6724079,76.5657683 77.0850844,76.2575625 L77.0000492,76.2395996 L76.6410118,76.1233134 C76.5370799,76.0590251 76.4236996,76.0060817 76.3197677,75.9285576 C76.1213523,75.7735093 75.9607303,75.5749718 75.8567984,75.3480719 C75.8001083,75.2346219 75.7717632,75.1107724 75.7245214,74.9916499 L74.9875498,71.6496028 C74.9497564,71.6306945 74.911963,71.6117862 74.8741696,71.5919324 C74.5245805,71.4113579 74.1844397,71.2109296 73.8537474,70.9934838 L70.5846169,72.0211515 C70.2633729,72.0826036 70.1783377,72.128929 69.8381969,72.0759856 C69.2146056,71.9776623 68.7705329,71.4510654 68.3359087,70.9046147 C67.2871414,69.5763046 66.4745829,68.0645837 65.9360268,66.4630483 L65.8604399,66.0952813 C65.8604399,65.9695409 65.8509916,65.8428551 65.8698883,65.7190056 C65.9076817,65.4694156 65.9927169,65.2302253 66.1344422,65.0222337 C66.210029,64.9182378 66.3045126,64.832205 66.3800994,64.7376633 L68.9028099,62.4223385 C68.8744648,61.9865015 68.8744648,61.5468829 68.9028099,61.1101005 L66.3800994,58.7947756 C66.1627873,58.5442403 66.0872004,58.4931878 65.9643718,58.1774187 C65.7376113,57.5874788 65.9643718,56.9360869 66.2289257,56.2894221 C66.8525171,54.7200308 67.7501107,53.2593624 68.8744648,51.9906136 L69.1484671,51.7391328 C69.2618474,51.6786262 69.3657792,51.6048837 69.4791595,51.5576128 C69.7153683,51.4630712 69.9610255,51.4224183 70.2161311,51.4413266 C70.3389597,51.4507808 70.4617883,51.4885974 70.5846169,51.5122329 L73.8537474,52.5389551 C74.2033364,52.3054372 74.5718223,52.0908277 74.9592048,51.8970173 L74.9875498,51.8828361 L75.7245214,48.540789 L75.8567984,48.1853124 C76.0268688,47.9054692 76.0552138,47.811873 76.3197677,47.6048268 C76.5181832,47.4516693 76.7638404,47.3684726 77.0000492,47.2928393 C77.0094976,47.2909485 77.5386054,47.1888435 77.954333,47.1321185 C79.5794498,46.9127819 81.2423601,46.9666707 82.8580286,47.2928393 L83.2170661,47.4091256 C83.3304463,47.4743593 83.4438266,47.5273026 83.5383101,47.6048268 C83.7367256,47.7589296 83.8973476,47.9584125 84.0107278,48.1853124 C84.0674179,48.2987624 84.095763,48.422612 84.1335564,48.540789 L84.8799764,51.8828361 C84.8988731,51.8951265 84.9272181,51.9064715 84.9461149,51.9187619 C85.3051523,52.1012273 85.6547414,52.302601 85.9854338,52.5219376 L86.0137788,52.5389551 L89.273461,51.5122329 L89.6419468,51.4413266 L90.0198809,51.4564533 C90.1427095,51.4904883 90.2655381,51.5245233 90.3789184,51.5576128 Z M79.8912455,50.2689807 C79.4849663,50.2709011 79.0786871,50.2935911 78.6818562,50.3370802 C78.6818562,50.3370802 78.0015747,53.3898299 78.0015747,53.3898299 L77.8976428,53.6895269 C77.7464692,53.9674793 77.5575021,54.2303051 77.3023965,54.4023709 C77.0850844,54.5432379 76.8394272,54.6188713 76.6126667,54.7275941 C76.0930072,54.9743478 75.5922445,55.2797173 75.1387235,55.6333031 L74.8741696,55.8025326 C74.5812706,55.9178734 74.2694749,56.0029609 73.9576792,55.9679805 C73.8537474,55.9566355 73.7498155,55.9244913 73.6458836,55.9027468 L70.6696521,54.9648937 C70.3295113,55.4281477 70.0177157,55.916928 69.7531618,56.425562 C69.6303332,56.6590799 69.5169529,56.8963794 69.413021,57.1374606 C69.413021,57.1374606 71.7184194,59.2533026 71.7184194,59.2533026 L71.9262832,59.4877659 C72.0869052,59.7609912 72.2191821,60.0521795 72.2380788,60.3670031 C72.2569755,60.634556 72.2002854,60.8926547 72.1719404,61.1554805 C72.1341469,61.7208395 72.1530436,62.2899802 72.2286305,62.8515575 L72.2380788,63.1663812 C72.1908371,63.4812049 72.1152502,63.7913015 71.9262832,64.0446731 C71.8601447,64.1297605 71.7845578,64.2016122 71.7184194,64.2791363 L69.413021,66.3940329 C69.7437134,67.1626565 70.1688893,67.8906271 70.6696521,68.5656544 C70.6696521,68.5656544 73.6458836,67.6296922 73.6458836,67.6296922 L73.9576792,67.5644584 C74.2789233,67.5597314 74.590719,67.5880938 74.8741696,67.7308517 C75.0914817,67.8414654 75.2710004,68.0050225 75.4694159,68.1430533 C75.9512819,68.480567 76.4709414,68.7613556 77.0189459,68.9835285 L77.3023965,69.130068 C77.5480537,69.3295509 77.7748142,69.55456 77.8976428,69.842912 C77.9448846,69.9393445 77.9637813,70.0433403 78.0015747,70.142609 L78.6724079,73.1953587 C79.503863,73.2870641 80.3542149,73.2851733 81.18567,73.1953587 C81.18567,73.1953587 81.8659515,70.142609 81.8659515,70.142609 L81.960435,69.842912 C82.121057,69.565905 82.3005758,69.3030792 82.5651297,69.130068 C82.6596132,69.0657797 82.7729935,69.0137818 82.8769253,68.9693472 C82.9903056,68.9258581 82.9903056,68.9220764 83.0375474,68.9041135 C83.6327937,68.6403423 84.1996949,68.3018833 84.7193544,67.8981904 L84.9933566,67.7299063 C85.2862556,67.6145655 85.5980513,67.529478 85.909847,67.5644584 C86.0137788,67.5767488 86.1082624,67.6079476 86.2121943,67.6296922 L89.1978741,68.5675453 C89.6986369,67.8915725 90.1143645,67.161711 90.4450568,66.3949783 C90.4450568,66.3949783 88.1491068,64.2791363 88.1491068,64.2791363 L87.941243,64.0446731 C87.7711727,63.7714477 87.6388957,63.4812049 87.619999,63.1663812 C87.6011023,62.8761384 87.6672408,62.5944043 87.6955858,62.3079431 C87.7333793,61.7662195 87.7050342,61.2216596 87.6294474,60.6818268 L87.619999,60.3670031 C87.6672408,60.0521795 87.752276,59.7411375 87.941243,59.4877659 C87.9979332,59.4036238 88.07352,59.3317722 88.1491068,59.2533026 L90.4545052,57.1393515 C90.1143645,56.3716733 89.6891885,55.6437027 89.1978741,54.9667845 C89.1978741,54.9667845 86.2121943,55.9027468 86.2121943,55.9027468 L85.909847,55.9679805 C85.5886029,55.9727076 85.2673589,55.9452905 84.9933566,55.803478 C84.709906,55.662611 84.4831455,55.447056 84.22804,55.2759357 C83.7934157,54.9885291 83.3304463,54.7455571 82.8391319,54.5489104 L82.5651297,54.4023709 C82.3194725,54.2038334 82.0832636,53.9778789 81.960435,53.6895269 C81.9226416,53.5930944 81.8942965,53.490044 81.8659515,53.3898299 L81.18567,50.3380257 C80.7604941,50.2898094 80.3258698,50.2680648 79.8912455,50.2689807 Z M79.9668323,56.3177846 C81.9698834,56.3366929 83.935141,57.551553 84.8232863,59.3752613 C85.8248118,61.4135791 85.3901875,64.0597997 83.7083805,65.685916 C82.1966439,67.1484752 79.825107,67.6221288 77.8409527,66.7986711 C76.1213523,66.0811001 74.8174795,64.4162217 74.5434772,62.5594239 C74.29782,60.8813097 74.8741696,59.1058176 76.1024556,57.8928484 C77.0945327,56.9143423 78.4550957,56.3404746 79.8629004,56.31873 C79.9006939,56.3177846 79.9290389,56.3177846 79.9668323,56.3177846 Z M63.6272762,54.732429 L63.4409515,55.1816316 C62.8144778,56.7125533 62.6044931,57.797872 63.1641133,59.2537793 C63.2050286,59.3590023 63.2456894,59.456291 63.2884482,59.5499565 L62.8842085,61.5648458 C62.7519315,62.0044644 62.5062743,62.4157206 62.1188918,62.6473476 C61.8543379,62.807123 61.5519906,62.8789746 61.2685399,62.9943154 C60.6260519,63.2524141 60.0024605,63.5719648 59.4166626,63.9454043 L59.1143152,64.0976164 C58.7836229,64.1845947 58.4340338,64.2337563 58.1127897,64.1439418 C57.9994095,64.1136885 57.8954776,64.0616906 57.7915457,64.0200922 L53.8704788,61.9987919 C53.0957138,62.7863238 52.405984,63.6542161 51.8107377,64.5835604 L51.8012893,64.6015233 L54.6357955,67.9757146 L54.8342109,68.2574487 C54.9570395,68.5769994 55.0515231,68.9116768 55.0042813,69.2482451 C54.9664879,69.5838679 54.8153142,69.8901829 54.7208307,70.2144607 C54.5318636,70.8545076 54.409035,71.5125174 54.3334482,72.1771452 L54.2673097,72.5089864 C54.1255844,72.82381 53.9460656,73.1216162 53.6720634,73.3220445 C53.5870282,73.3882236 53.4830963,73.4354945 53.3791644,73.4922195 L49.3541656,75.2979648 C49.4864426,76.3918116 49.7415482,77.4743135 50.0911372,78.5227803 L50.1005856,78.5445249 L54.5035185,78.4254024 L54.8436593,78.451874 C55.1743517,78.5483065 55.4955957,78.6835011 55.7318045,78.9283639 C55.958565,79.1637726 56.1002903,79.4559063 56.2798091,79.7215683 C56.6766399,80.279364 57.1112642,80.8002885 57.6025786,81.2796146 L57.8104424,81.5424404 C57.9710644,81.8487553 58.093893,82.1730331 58.0844447,82.5124376 C58.0749963,82.6258876 58.0466512,82.7365013 58.0277545,82.8490059 L56.9317455,87.1222881 C57.8765809,87.7018284 58.8781064,88.1830454 59.907977,88.5593211 L59.936322,88.5668844 L62.5913095,85.0442628 L62.81807,84.7956183 C63.1015206,84.5970808 63.4038679,84.431633 63.7440087,84.4004342 C64.0841494,84.3692355 64.4148418,84.4448688 64.7455342,84.4647225 C65.4163673,84.50443 66.0872004,84.4836309 66.7485852,84.4051613 L67.0887259,84.4004342 C67.4194183,84.4675588 67.7501107,84.5725 68.0052163,84.7956183 C68.0996998,84.8693608 68.1658383,84.9610662 68.2414251,85.0442628 L70.8964126,88.5668844 C71.9357315,88.1924995 72.937257,87.7093917 73.8726441,87.1336331 L73.8915408,87.1222881 L72.7955317,82.8490059 L72.7482899,82.5124376 C72.7671867,82.1692515 72.8333251,81.8279561 73.0128439,81.5443312 C73.1829142,81.2815054 73.4285714,81.0858042 73.6364352,80.8570134 C74.1088529,80.3455432 74.5245805,79.7886929 74.8930663,79.1968622 L75.1009301,78.9283639 C75.1627862,78.876417 75.2256754,78.8260724 75.2900807,78.778635 L75.7166367,78.977351 L76.0756742,79.0936372 L76.3800094,79.1748254 L76.4650445,79.1927883 C78.2480401,79.5393607 80.0330929,79.6196099 81.7829513,79.4360869 L82.4724764,79.3515743 L82.8579567,79.2989515 C82.9571998,79.2842396 83.0477982,79.2695275 83.1349152,79.253668 C83.356914,79.5304078 83.4910513,79.8716357 83.48162,80.2547832 C83.4627233,80.9931534 82.8863737,81.6681807 82.1682988,81.8128295 C82.0454702,81.8374103 81.9226416,81.8336286 81.799813,81.8440282 L77.1417745,81.7182878 C77.1134295,81.750432 77.0945327,81.7816307 77.0661877,81.8137749 C76.7921854,82.1881598 76.4992865,82.5530905 76.1969391,82.9028946 C76.1969391,82.9028946 77.3496383,87.4342756 77.3496383,87.4342756 L77.3968801,87.757608 C77.3874317,88.04596 77.3968801,88.125375 77.3023965,88.4014366 C77.1245957,88.8903028 76.6811477,89.2190499 76.2101001,89.5248981 L75.8945918,89.7269104 C74.3261651,90.7290518 72.616013,91.5024025 70.8397225,92.0223815 L70.7452389,92.050744 L70.4145465,92.1084144 C69.9799222,92.0989602 69.5358496,91.994019 69.2051572,91.7037762 C69.1295704,91.6309791 69.0634319,91.5430554 68.9878451,91.462695 L66.1722356,87.7339726 C66.1344422,87.7368088 66.0966488,87.7377542 66.0588554,87.7396451 C65.595886,87.7594988 65.1234683,87.7585534 64.660499,87.734918 C64.660499,87.734918 61.8448895,91.462695 61.8448895,91.462695 L61.618129,91.7037762 C61.3819202,91.8720603 61.3346784,91.9354032 61.0606761,92.0289994 C60.7488805,92.1329952 60.4181881,92.1140869 60.0874957,92.050744 C60.0780473,92.0488532 59.5583879,91.8966411 59.1426603,91.7548286 C57.3852665,91.1554346 55.7223562,90.3045598 54.2011712,89.2315122 L54.116136,89.1728964 L53.8704788,88.9573414 C53.6059249,88.6056465 53.4075095,88.1953358 53.4358545,87.757608 C53.4358545,87.6488851 53.4641996,87.542053 53.4830963,87.4342756 L54.6452438,82.9104579 C54.6168988,82.88115 54.5885537,82.8518421 54.5602087,82.8225342 C54.5413119,82.7951171 54.5129669,82.7677001 54.4940702,82.7412284 C54.2106196,82.4150597 53.9460656,82.0756552 53.7004084,81.7258511 C53.7004084,81.7258511 52.7605725,81.749599 51.7235121,81.7758035 L51.0003696,81.7940759 C49.9633092,81.8202804 49.0234733,81.8440282 49.0234733,81.8440282 L48.7022292,81.8203928 C48.4187786,81.7428686 48.3431918,81.7419232 48.0975346,81.5830933 C47.8235323,81.405355 47.6251169,81.1340205 47.4739432,80.8409414 C47.4644949,80.8267601 47.2471827,80.2973269 47.0960091,79.8671624 C46.4724177,78.0992337 46.0944835,76.240545 46,74.3705113 L46.0094484,74.0433972 C46.1228286,73.6151236 46.321244,73.2095399 46.6802815,72.9542775 C46.7653167,72.8899892 46.8692486,72.8455546 46.9637321,72.7907205 L51.2154914,70.8790884 L51.2438364,70.7628022 C51.3288716,70.3061661 51.4328035,69.8514208 51.5556321,69.4014026 C51.5556321,69.4014026 48.9511894,66.2979152 48.5919559,65.869848 L48.5510556,65.8211105 L48.5510556,65.8211105 L48.3620885,65.5507214 C48.2581566,65.2850594 48.2014665,65.2207711 48.1731214,64.9295828 C48.1447763,64.6043596 48.2298115,64.2838634 48.3715368,63.9813302 C48.3715368,63.9671489 48.6360907,63.4944407 48.8628512,63.1247829 C49.8360317,61.5431012 51.045421,60.1041774 52.4248807,58.8609548 L52.5004675,58.7928848 L52.7650214,58.6009653 C53.1713006,58.4175545 53.6153733,58.321122 54.0311008,58.4402445 C54.1350327,58.4695524 54.2389646,58.5206049 54.3334482,58.5603124 L58.4907239,60.6997897 C58.5190689,60.6808814 58.5568624,60.6629185 58.5852074,60.6440102 C59.000935,60.4237281 59.4166626,60.2232999 59.8512868,60.0417799 C59.8512868,60.0417799 60.4854613,56.9026286 60.7041421,55.8201627 L60.764621,55.5207932 C60.7728215,55.4802007 60.7772255,55.458401 60.7772255,55.458401 L60.8811574,55.1095424 C61.136263,54.6831596 61.4953004,54.3172834 61.9677181,54.1953247 C62.5682899,54.0419266 63.2283441,54.2694503 63.6272762,54.732429 Z M62.9885347,67.0199466 L62.9974508,67.0670113 L63.0924962,67.4192563 C63.3865354,68.2936575 63.7478377,69.1437956 64.1717145,69.9601309 C63.9276144,70.1369502 63.6553154,70.2928291 63.4227646,70.4867406 C62.4023424,71.3357246 61.9299247,72.7992292 62.2606171,74.0897226 C62.7897249,76.1100775 65.3124354,77.3948985 67.3249348,76.3435954 C67.9396465,76.0226791 68.453556,75.5185262 68.7953784,74.9080132 C68.979001,74.9639292 69.1714682,75.0079228 69.3709513,75.0393758 C69.8113805,75.1079351 70.2045495,75.1194807 70.6237012,75.0640626 L70.9226295,75.0132999 C71.0792345,74.9836621 71.209711,74.9559717 71.1482785,74.9677233 L71.4842773,74.8830759 L71.795,74.7847326 L71.8542916,74.9262857 C72.2000069,75.8938752 71.4385681,77.062247 70.5657202,77.9536396 C68.5815659,79.9976299 65.2651936,80.6093143 62.6291029,79.2857313 C60.7299838,78.3327516 59.3316274,76.4523183 58.9820383,74.3336401 C58.5190689,71.6089499 59.8890803,68.655469 62.3551006,67.2685431 C62.5564185,67.15493 62.7714628,67.0619192 62.9885347,67.0199466 Z M79.9479356,59.58798 C80.4959402,59.5927071 81.0344963,59.8092075 81.4313272,60.1883194 C82.6029231,61.3076925 82.0643669,63.2382328 80.7604941,63.7799565 C79.7400718,64.2091755 78.4456474,63.6920327 77.9637813,62.7078542 C77.2457064,61.2188234 78.4928891,59.6012158 79.9195906,59.58798 L79.9195906,59.58798 Z" id="icon_Development"></path>
                </g>
            </g>
        </g>
    </g>
</svg>
